<?xml version="1.0" standalone="no"?>
<!DOCTYPE svg PUBLIC "-//W3C//DTD SVG 20010904//EN"
 "http://www.w3.org/TR/2001/REC-SVG-20010904/DTD/svg10.dtd">
<svg version="1.0" xmlns="http://www.w3.org/2000/svg"
 width="1080.000000pt" height="1080.000000pt" viewBox="0 0 1080.000000 1080.000000"
 preserveAspectRatio="xMidYMid meet">
<metadata>
Created by potrace 1.14, written by Peter Selinger 2001-2017
</metadata>
<g transform="translate(0.000000,1080.000000) scale(0.100000,-0.100000)"
fill="#000000" stroke="none">
<path d="M0 5400 l0 -5400 5400 0 5400 0 0 5400 0 5400 -5400 0 -5400 0 0
-5400z m933 -2466 c36 -125 64 -231 61 -235 -6 -11 -65 -12 -79 -1 -6 4 -16
19 -22 35 -12 25 -17 27 -73 27 -60 0 -61 0 -76 -35 -13 -32 -18 -35 -54 -35
-21 0 -41 4 -44 9 -3 5 24 110 61 235 l66 226 47 0 46 0 67 -226z m282 104
c22 -65 43 -118 47 -118 5 0 8 54 8 120 l0 120 45 0 45 0 -2 -232 -3 -233 -48
-3 c-27 -2 -54 1 -61 7 -6 5 -27 53 -46 105 -19 53 -37 96 -42 96 -4 0 -9 -46
-10 -102 l-3 -103 -40 0 -40 0 -3 233 -2 233 57 -3 58 -3 40 -117z m484 96
c20 -25 21 -40 21 -209 l0 -183 -31 -26 c-30 -26 -36 -27 -138 -24 l-106 3 -3
233 -2 232 119 0 c117 0 120 -1 140 -26z m348 4 c21 -20 23 -30 23 -122 0 -88
-2 -102 -21 -122 l-22 -23 33 -81 c37 -91 34 -103 -26 -98 -42 3 -43 4 -96
123 -13 28 -27 49 -33 48 -5 -2 -12 -40 -15 -85 -5 -78 -6 -83 -29 -86 -12 -2
-34 -1 -47 2 l-24 6 0 230 0 230 117 0 c106 0 119 -2 140 -22z m380 0 c22 -21
23 -26 23 -209 l0 -187 -32 -27 c-30 -26 -36 -27 -126 -23 -88 3 -95 5 -118
31 -23 27 -24 32 -24 205 l0 176 27 28 c26 27 30 28 127 28 89 0 102 -2 123
-22z m181 -210 l-3 -233 -40 0 -40 0 -3 233 -2 232 45 0 45 0 -2 -232z m329
210 c22 -21 23 -26 23 -214 l0 -193 -26 -20 c-23 -18 -41 -21 -125 -21 -53 0
-104 3 -113 6 -14 5 -16 36 -16 235 l0 229 117 0 c106 0 119 -2 140 -22z m580
0 c22 -21 23 -26 23 -209 l0 -187 -31 -26 c-30 -26 -36 -27 -138 -24 l-106 3
-3 233 -2 232 117 0 c106 0 119 -2 140 -22z m363 -22 c0 -53 -6 -56 -101 -56
l-70 0 3 -42 3 -43 63 -3 62 -3 0 -44 0 -44 -62 -3 -63 -3 0 -40 0 -40 83 -3
83 -3 -3 -47 -3 -47 -125 0 -125 0 -3 233 -2 232 130 0 130 0 0 -44z m169 7
c5 -21 19 -82 32 -136 13 -53 26 -94 30 -90 4 5 23 64 41 133 l34 125 54 3
c42 3 51 0 47 -11 -3 -8 -28 -104 -56 -213 -66 -257 -60 -244 -115 -244 -24 0
-48 6 -53 13 -5 6 -33 104 -62 217 -29 113 -54 213 -57 223 -5 15 2 17 45 17
50 0 50 0 60 -37z m571 -7 c0 -53 -6 -56 -101 -56 l-70 0 3 -42 3 -43 63 -3
62 -3 0 -44 0 -44 -62 -3 -63 -3 0 -40 0 -40 83 -3 83 -3 -3 -47 -3 -47 -125
0 -125 0 -3 233 -2 232 130 0 130 0 0 -44z m172 -138 l3 -183 93 -3 93 -3 -3
-47 -3 -47 -135 0 -135 0 -3 233 -2 232 45 0 45 0 2 -182z m535 160 c22 -21
23 -26 23 -209 l0 -187 -31 -26 c-27 -23 -39 -26 -114 -26 -75 0 -87 3 -114
26 l-31 26 0 186 c0 237 -3 232 144 232 89 0 102 -2 123 -22z m360 0 c21 -20
23 -30 23 -122 0 -89 -2 -102 -22 -123 -18 -19 -32 -23 -82 -23 -34 0 -66 -4
-73 -8 -7 -5 -13 -39 -15 -87 l-3 -80 -40 0 -40 0 -3 233 -2 232 117 0 c106 0
119 -2 140 -22z m361 -25 l-3 -48 -83 -3 -83 -3 3 -42 3 -42 63 -3 62 -3 0
-44 0 -45 -52 0 c-68 0 -80 -9 -76 -51 l3 -34 83 -3 83 -3 -3 -47 -3 -47 -125
0 -125 0 -3 233 -2 232 130 0 131 0 -3 -47z m339 25 c21 -20 23 -30 23 -122 0
-88 -2 -102 -22 -123 l-21 -23 31 -81 c18 -44 30 -85 26 -90 -8 -13 -82 -11
-94 4 -6 6 -26 46 -43 87 -44 103 -61 100 -67 -10 l-5 -85 -40 0 -40 0 -3 233
-2 232 117 0 c106 0 119 -2 140 -22z m552 -4 c18 -23 21 -41 21 -120 0 -85 -2
-95 -26 -123 -24 -29 -30 -31 -95 -31 l-69 0 0 -86 0 -85 -52 3 -53 3 -3 233
-2 232 129 0 c128 0 130 0 150 -26z m358 4 c22 -21 23 -26 23 -214 l0 -193
-26 -20 c-23 -18 -41 -21 -123 -21 -93 0 -98 1 -124 28 l-27 28 0 184 c0 236
-4 230 149 230 94 0 107 -2 128 -22z m360 0 c22 -21 23 -26 23 -208 l0 -186
-28 -27 c-28 -27 -30 -28 -148 -25 l-119 3 -3 233 -2 232 127 0 c116 0 129 -2
150 -22z m367 -7 c22 -23 27 -36 24 -67 l-3 -39 -51 -3 c-45 -3 -52 0 -57 18
-4 16 -13 20 -46 20 l-41 0 0 -130 0 -130 25 -6 c33 -8 56 1 62 27 5 17 12 20
57 17 l51 -3 3 -41 c2 -33 -2 -48 -23 -73 l-27 -31 -102 0 c-99 0 -103 1 -129
28 l-27 28 0 184 c0 236 -4 230 150 230 104 0 107 -1 134 -29z m375 -194 c35
-122 65 -226 65 -232 1 -15 -83 -18 -100 -4 -8 6 -14 20 -14 30 0 17 -8 19
-66 19 -63 0 -65 -1 -75 -30 -10 -28 -15 -30 -59 -30 -27 0 -51 3 -53 8 -3 5
108 398 128 450 3 7 24 12 57 12 l53 0 64 -223z m411 196 c15 -20 20 -38 18
-67 l-3 -41 -52 -3 c-48 -3 -53 -1 -53 18 0 19 -5 21 -42 18 -41 -3 -43 -5
-46 -37 -4 -44 8 -51 90 -51 60 0 69 -3 87 -26 17 -22 21 -41 21 -110 0 -74
-3 -86 -26 -113 -26 -31 -26 -31 -128 -31 -99 0 -103 1 -129 28 -21 21 -27 38
-27 70 l0 42 54 0 c45 0 54 -3 59 -20 4 -14 14 -20 35 -20 35 0 55 20 50 52
-3 21 -9 23 -73 26 -60 3 -74 7 -97 29 -27 26 -28 31 -28 122 0 83 3 97 22
118 20 21 29 23 134 23 110 0 113 -1 134 -27z m380 -23 l0 -50 -45 0 -45 0 -2
-182 -3 -183 -52 -3 -53 -3 0 185 0 185 -47 3 c-46 3 -48 4 -51 36 -6 62 -7
62 153 62 l145 0 0 -50z"/>
<path d="M801 2926 c-6 -24 -13 -51 -17 -60 -5 -13 1 -16 36 -16 33 0 41 3 37
14 -3 8 -11 33 -17 55 -15 56 -26 58 -39 7z"/>
<path d="M1532 2928 l3 -133 40 0 40 0 3 133 3 132 -46 0 -46 0 3 -132z"/>
<path d="M1890 3011 l0 -51 34 0 c42 0 58 19 54 62 -3 31 -5 33 -45 36 l-43 3
0 -50z"/>
<path d="M2254 3047 c-2 -7 -3 -67 -2 -133 l3 -119 45 0 45 0 3 133 3 132 -46
0 c-28 0 -48 -5 -51 -13z"/>
<path d="M2780 2925 l0 -136 43 3 42 3 0 130 0 130 -42 3 -43 3 0 -136z"/>
<path d="M3352 2928 l3 -133 40 0 40 0 3 133 3 132 -46 0 -46 0 3 -132z"/>
<path d="M5157 3054 c-9 -9 -9 -226 -1 -248 4 -11 19 -16 50 -16 54 0 56 5 52
155 l-3 110 -45 3 c-25 2 -49 0 -53 -4z"/>
<path d="M5522 3013 c3 -47 4 -48 39 -51 44 -4 62 15 57 60 -3 32 -5 33 -51
36 l-48 3 3 -48z"/>
<path d="M6222 3013 l3 -48 40 0 40 0 3 48 3 47 -46 0 -46 0 3 -47z"/>
<path d="M6772 3013 c3 -43 6 -48 29 -51 33 -4 51 18 47 60 -3 30 -6 33 -41
36 l-38 3 3 -48z"/>
<path d="M7132 2928 l3 -133 28 -3 c50 -6 57 9 57 128 0 60 -3 115 -6 124 -4
11 -19 16 -45 16 l-40 0 3 -132z"/>
<path d="M7492 2928 l3 -133 35 0 35 0 0 130 0 130 -38 3 -38 3 3 -133z"/>
<path d="M8266 2923 c-3 -16 -8 -38 -12 -50 -6 -20 -3 -23 25 -23 36 0 35 -3
20 56 -13 50 -24 56 -33 17z"/>
</g>
</svg>
